<svg preserveAspectRatio="none" overflow="visible" style="display: block;" width="335" height="395.2" viewBox="0 0 335 395.2" fill="none" xmlns="http://www.w3.org/2000/svg">
<g id="Illustration">
<path id="Vector" fill-rule="evenodd" clip-rule="evenodd" d="M56.3597 394.672C56.2552 395.047 55.8359 395.273 55.4235 395.178C55.011 395.083 54.7622 394.702 54.8666 394.327C54.8962 394.22 65.1093 356.956 90.6673 331.733C108.765 313.872 107.747 302.618 106.776 291.881C106.392 287.63 106.014 283.458 106.788 278.954C107.458 275.056 109.35 271.067 111.965 267.332C115.628 262.099 120.725 257.345 125.864 254.035C131.081 250.675 136.384 248.789 140.36 249.354C140.837 249.422 141.294 249.523 141.731 249.662C140.633 246.15 139.302 242.548 137.694 238.904C133.239 228.812 131.287 223.245 131.2 219.377C131.109 215.347 132.948 213.218 136.062 210.002C137.431 208.586 140.282 206.279 143.934 203.319C156.429 193.2 178.449 175.367 181.564 160.645C183.438 151.788 183.196 142.345 181.552 133.101C179.646 122.389 175.856 111.942 171.288 102.977C170.408 101.249 169.546 99.5581 168.702 97.897C167.489 97.7277 166.249 97.492 164.987 97.1803C157.461 95.3245 160.205 89.6196 161.957 86.9855C158.928 87.5139 152.294 89.1466 145.892 93.8944C141.362 97.2515 137.602 99.1246 134.558 99.5296C131.299 99.9631 128.863 98.7924 127.195 96.0381C125.438 93.1318 123.698 89.3317 123.468 85.6392C123.292 82.8168 123.992 80.064 126.21 77.808C126.854 77.1546 127.69 76.4775 128.69 75.8336C129.548 75.2814 130.53 74.753 131.616 74.2848C131.351 74.0775 131.092 73.8687 130.838 73.6582C126.407 69.9863 123.553 65.9252 122.382 62.8022C122.074 61.9827 121.991 61.092 122.107 60.1728C122.372 58.0544 123.699 55.7446 125.756 53.7291C127.784 51.742 130.533 50.0239 133.681 49.0494C135.996 48.3327 138.526 48.0147 141.141 48.2868C143.139 48.494 144.912 48.7978 146.494 49.2218C146.327 47.4451 146.388 45.7871 146.654 44.2462C147.496 39.3466 150.383 35.6493 154.568 33.1354C156.288 32.1023 158.426 31.324 160.744 30.8288C164.36 30.0552 168.438 29.965 172.043 30.6611C175.726 31.3714 178.938 32.906 180.734 35.3772C181.305 36.1635 181.731 37.0399 181.982 38.0097C182.194 38.8293 182.335 39.6266 182.41 40.4097C183.99 40.2294 185.566 40.2816 187.099 40.5743C188.33 40.8084 189.546 41.1201 190.717 41.5093C193.978 42.5914 196.9 44.2763 198.816 46.5734C200.767 48.9117 201.673 51.8607 200.852 55.4203C200.692 56.1116 200.467 56.8267 200.172 57.564C198.597 61.4906 195.163 65.1689 191.093 68.3884C190.233 69.0687 189.344 69.7284 188.438 70.366C189.856 71.5162 191.027 72.9574 191.887 74.4746C193.037 76.5044 193.643 78.6939 193.556 80.5307C193.42 83.3832 192.511 86.3005 191.184 88.8381C189.758 91.5608 187.832 93.8706 185.836 95.2138C183.751 96.6171 180.443 97.734 176.42 98.1042C174.584 98.2735 172.595 98.2877 170.502 98.1042L172.685 102.395C177.306 111.462 181.139 122.033 183.069 132.884C184.74 142.28 184.983 151.886 183.076 160.909C179.864 176.1 157.595 194.132 144.959 204.366C141.348 207.292 138.531 209.571 137.219 210.929C134.351 213.892 132.656 215.843 132.734 219.352C132.818 223.022 134.739 228.456 139.121 238.387C140.945 242.518 142.417 246.598 143.598 250.554C148.732 253.812 152.472 261.392 155.461 267.454C157.609 271.808 159.349 275.333 160.563 275.53C161.472 275.678 162.759 275.587 164.578 275.459C169.875 275.086 179.5 274.407 198.257 278.258C223.412 283.422 246.198 280.97 246.264 280.963C246.687 280.919 247.068 281.196 247.116 281.579C247.153 281.871 246.986 282.142 246.718 282.273C245.909 282.724 229.398 291.751 205.159 291.751C195.082 291.751 187.211 290.516 180.762 289.503C171.61 288.067 165.398 287.092 159.944 290.864C154.922 294.336 151.386 295.926 149.108 295.387C146.654 294.806 145.763 292.069 146.205 286.918C146.677 281.414 146.691 272.789 144.888 262.619C144.256 259.055 143.402 255.301 142.264 251.423C141.63 251.072 140.912 250.846 140.123 250.733C136.556 250.227 131.654 252.013 126.746 255.174C121.761 258.386 116.815 262.999 113.257 268.082C110.749 271.664 108.939 275.47 108.304 279.168C107.561 283.493 107.932 287.594 108.309 291.772C109.308 302.805 110.354 314.367 91.7984 332.681C66.5101 357.638 56.3892 394.566 56.3597 394.674V394.672ZM154.057 268.019C151.464 262.76 148.29 256.329 144.253 252.842C145.156 256.138 145.861 259.336 146.404 262.398C148.231 272.705 148.217 281.444 147.738 287.021C147.364 291.387 147.9 293.656 149.492 294.033C151.259 294.45 154.384 292.952 159.015 289.75C165.004 285.608 171.481 286.624 181.019 288.12C187.404 289.122 195.198 290.346 205.157 290.346C223.177 290.346 236.809 285.292 242.721 282.639C235.203 283.101 217.253 283.585 197.92 279.615C179.396 275.812 169.912 276.481 164.691 276.85C162.759 276.986 161.39 277.082 160.297 276.905C158.279 276.578 156.389 272.748 154.057 268.019ZM167.917 96.3545C166.369 93.3043 164.874 90.3553 163.422 87.4839C161.978 89.5832 159.471 94.369 165.387 95.8276C166.242 96.038 167.086 96.2137 167.916 96.3545H167.917ZM160.891 82.4561L159.679 80.0466C156.116 72.94 152.879 66.4093 149.799 60.0779C148.149 56.6875 147.14 53.5756 146.685 50.7421C145.041 50.247 143.151 49.9037 140.971 49.6774C138.59 49.4306 136.284 49.7201 134.172 50.3751C131.278 51.2721 128.746 52.8542 126.88 54.6831C125.043 56.4834 123.863 58.5069 123.635 60.3262C123.545 61.0477 123.605 61.7343 123.839 62.3545C124.938 65.286 127.644 69.1225 131.873 72.6252C132.299 72.9795 132.741 73.3292 133.199 73.6741C135.411 72.9147 137.962 72.4243 140.732 72.4417C145.657 72.4733 151.267 74.1012 156.878 78.6639C158.218 79.7539 159.559 81.0132 160.891 82.4592V82.4561ZM161.077 79.466L161.712 80.7316C160.819 76.5155 159.448 70.4277 157.847 64.601C156.453 59.5321 154.812 56.0484 152.24 53.7259C151.142 52.734 149.863 51.9461 148.347 51.3259C148.835 53.8224 149.767 56.5515 151.21 59.5147C154.382 66.0359 157.607 72.5461 161.079 79.4676L161.077 79.466ZM164.439 86.1454C166.118 89.4709 167.883 92.9514 169.745 96.6155C172.068 96.8844 174.266 96.8939 176.267 96.7104C180.003 96.3671 183.038 95.3546 184.919 94.0889C186.711 92.8818 188.467 90.7603 189.79 88.2337C191.039 85.848 191.892 83.119 192.017 80.4674C192.094 78.8696 191.549 76.9331 190.517 75.1122C189.689 73.6503 188.554 72.2771 187.185 71.2219C182.464 74.3892 177.429 76.9442 173.679 78.5927C170.578 79.9548 168.398 81.3392 166.913 82.5589C166.482 82.9133 166.109 83.244 165.793 83.5493C165.566 83.9891 165.366 84.3909 165.191 84.7437C164.895 85.3354 164.658 85.8085 164.441 86.1423L164.439 86.1454ZM148.17 44.4582C147.893 46.0656 147.857 47.8169 148.09 49.7122C150.164 50.44 151.875 51.4272 153.324 52.7355C156.122 55.2637 157.88 58.9483 159.34 64.2624C160.478 68.4027 161.5 72.6726 162.318 76.3177C162.344 71.07 162.796 64.4333 164.441 58.2743C166.097 52.0663 169.283 47.3945 173.105 44.3775C175.515 42.4743 178.177 41.2261 180.878 40.6581C180.816 39.8956 180.685 39.1204 180.48 38.3277C180.271 37.5225 179.919 36.7979 179.448 36.1492C177.896 34.0135 175.033 32.6703 171.721 32.0311C168.335 31.3778 164.5 31.4648 161.091 32.1941C158.945 32.6529 156.977 33.3648 155.414 34.303C151.581 36.6049 148.937 39.9857 148.168 44.4614L148.17 44.4582ZM182.472 41.8114C182.451 47.6888 178.748 52.9112 173.634 60.1222C172.694 61.4464 171.708 62.8386 170.733 64.2466C165.612 71.6459 164.489 79.091 164.291 83.0541C164.336 83.0019 164.383 82.9497 164.432 82.8959C166.48 78.9075 170.5 71.8895 176.801 68.9374C178.614 68.0878 180.36 67.7588 181.997 67.8236C183.911 67.8996 185.66 68.515 187.19 69.4705C188.178 68.7824 189.148 68.0688 190.082 67.33C193.98 64.2482 197.253 60.7566 198.727 57.0862C198.997 56.4122 199.202 55.762 199.347 55.1339C200.067 52.0125 199.284 49.4417 197.593 47.4135C195.868 45.3457 193.195 43.8159 190.192 42.8192C189.09 42.4538 187.943 42.1595 186.784 41.9396C185.38 41.6722 183.929 41.6311 182.472 41.8099V41.8114ZM172.339 59.3675C177.21 52.4982 180.756 47.4989 180.915 42.0883C178.56 42.6341 176.232 43.7558 174.111 45.4328C170.516 48.271 167.512 52.6944 165.934 58.6018C164.376 64.4364 163.91 70.7188 163.858 75.7893C164.792 72.1015 166.463 67.792 169.431 63.503C170.469 62.0048 171.427 60.6537 172.339 59.3675V59.3675ZM173.011 77.3365C176.59 75.764 181.36 73.3498 185.876 70.3612C184.684 69.6968 183.355 69.2775 181.928 69.2222C180.548 69.1684 179.063 69.4531 177.502 70.1841C173.079 72.255 169.804 76.5914 167.615 80.2459C169.022 79.3015 170.797 78.3095 173.009 77.3381L173.011 77.3365ZM160.266 85.8955C157.128 85.0222 151.695 83.4401 144.333 81.0338C139.894 79.5831 136.084 77.5469 132.929 75.2751C131.662 75.7703 130.535 76.3557 129.574 76.9743C128.675 77.5533 127.926 78.1592 127.354 78.7398C125.447 80.6778 124.848 83.0826 125.003 85.5633C125.217 89.0042 126.872 92.6002 128.544 95.3657C129.868 97.5537 131.783 98.4855 134.335 98.1453C137.102 97.7783 140.616 96.0048 144.923 92.8106C150.707 88.5217 156.704 86.6707 160.266 85.8939V85.8955ZM144.85 79.7207C152.271 82.1476 157.713 83.728 160.809 84.5871C159.168 82.6649 157.509 81.0496 155.854 79.7049C150.564 75.4033 145.314 73.8671 140.725 73.837C138.515 73.8228 136.458 74.1566 134.622 74.6977C137.509 76.6752 140.925 78.4377 144.85 79.7207V79.7207Z" fill="#C8D8C0"/>
<path id="Vector_2" fill-rule="evenodd" clip-rule="evenodd" d="M148.114 50.0082C148.241 50.3753 148.019 50.7676 147.615 50.8847C147.211 51.0002 146.78 50.7977 146.651 50.4306C146.646 50.4148 144.648 44.9156 145.509 37.1176C145.241 36.276 143.562 31.1612 140.35 24.4801C140.303 24.3821 140.27 24.3125 140.249 24.265C138.503 20.4696 138.686 16.3326 140.922 12.5056C143.122 8.73868 147.319 5.2803 153.629 2.77274C153.855 2.68257 154.052 2.60661 154.221 2.54175C155.884 1.91051 157.539 1.40426 159.164 1.01508C164.491 -0.26006 169.491 -0.271141 173.439 0.632214C177.508 1.56405 180.499 3.47992 181.667 6.01596C181.789 6.28175 181.893 6.5586 181.975 6.84179C182.457 8.50611 182.923 9.94736 183.316 11.1671C184.427 14.6049 185.034 16.4828 183.682 17.0983C182.862 17.4716 182.043 16.8641 180.779 15.926C178.952 14.5701 175.945 12.3363 171.367 11.58C171.273 11.7129 171.182 11.8506 171.095 11.993C168.875 15.6095 166.945 16.5509 163.713 18.125C162.043 18.9382 160.005 19.9317 157.337 21.6214C150.227 26.1239 147.262 36.4168 147.053 37.1746C146.2 44.7289 148.113 49.9924 148.118 50.0082H148.114ZM145.518 32.6167C145.436 31.5614 145.318 30.4698 145.198 29.3624C144.474 22.6893 143.689 15.4545 150.176 10.9741C154.607 7.91284 158.583 5.48913 162.279 4.07319C166.082 2.61611 169.588 2.21744 172.978 3.26634C176.699 4.41808 178.829 5.40686 179.977 6.05076C178.844 4.18077 176.37 2.74584 173.065 1.98961C169.348 1.13847 164.618 1.15587 159.554 2.36773C157.999 2.73951 156.411 3.2252 154.809 3.8343C154.586 3.91815 154.396 3.9925 154.242 4.05421C148.276 6.42413 144.328 9.65784 142.283 13.1621C140.271 16.6062 140.104 20.3225 141.67 23.7287L141.761 23.9217C143.404 27.3389 144.651 30.3559 145.52 32.6182L145.518 32.6167ZM146.727 29.2263C146.854 30.3986 146.98 31.552 147.063 32.672C148.683 28.8941 151.682 23.4945 156.453 20.4728C159.161 18.7579 161.265 17.7343 162.986 16.8942C165.969 15.4403 167.747 14.5733 169.748 11.3143C169.934 11.0105 170.133 10.7273 170.34 10.46C170.363 10.4251 170.387 10.3935 170.416 10.3635C172.583 7.64073 175.724 6.82438 177.969 6.61871C176.81 6.0824 175.066 5.39105 172.486 4.59211C169.485 3.66344 166.331 4.0368 162.876 5.36099C159.316 6.72472 155.44 9.09148 151.104 12.0863C145.304 16.0921 146.045 22.925 146.729 29.2263H146.727ZM180.727 8.022C180.642 8.03307 180.553 8.0315 180.468 8.01568C179.993 7.95715 175.5 7.49044 172.433 10.3492C176.944 11.2779 179.906 13.4769 181.745 14.8422C182.544 15.4355 182.925 15.8817 182.993 15.85C183.195 15.7583 182.716 14.2743 181.839 11.5611C181.508 10.5359 181.127 9.35725 180.727 8.02042V8.022Z" fill="#C8D8C0"/>
<path id="Vector_3" fill-rule="evenodd" clip-rule="evenodd" d="M147.643 49.7283C147.866 50.0558 147.754 50.4861 147.392 50.6886C147.032 50.8911 146.559 50.7898 146.336 50.4608C146.324 50.4418 143.115 45.7399 139.819 42.9808C139.76 42.9523 139.704 42.9159 139.654 42.8732C139.654 42.8732 139.513 42.7562 139.273 42.541C138.775 42.1597 138.279 41.8322 137.797 41.5791C137.317 41.3513 136.748 41.144 136.093 41.0159C135.385 40.8767 133.624 41.3007 131.372 41.8449C127.046 42.8891 121.013 44.3461 115.798 43.2339C113.236 42.6881 111.781 41.8243 111.207 40.9083C110.861 40.3578 110.807 39.7914 111.003 39.2471C111.183 38.752 111.572 38.2948 112.138 37.9135C113.523 36.9785 116.128 36.4184 119.281 36.8551C122.814 37.3439 126.094 37.8581 129.052 38.3517C131.725 38.7979 134.139 39.2313 136.227 39.6158C134.924 38.2726 133.401 36.5814 131.939 34.6718C131.416 34.7952 130.932 34.5294 129.903 33.9647C129.174 33.5644 128.074 32.96 126.31 32.1833C125.511 31.832 124.577 31.4603 123.55 31.0537C118.724 29.141 111.915 26.4388 107.608 21.2196C105.694 18.8987 102.285 17.4432 98.8516 16.532C97.6613 17.4274 93.203 20.6358 88.8682 21.8398C84.1175 23.1592 79.9759 22.6514 79.4643 22.5802C79.4051 22.5754 79.346 22.5644 79.2868 22.5454C78.8848 22.4204 78.6708 22.0217 78.8082 21.6563C78.81 21.6499 79.6 19.4967 80.9243 18.0919C81.8275 17.1347 82.9359 16.5051 84.73 15.4862C85.5531 15.0195 86.5259 14.4658 87.6692 13.776C87.8624 13.5925 88.4262 13.0973 89.4564 12.5262C89.9854 12.0816 90.3473 11.6845 90.7162 11.278C91.5306 10.3841 92.3747 9.457 94.7483 8.04106C96.967 6.71688 99.5704 5.21866 102.793 4.34062C106.035 3.45783 109.867 3.21579 114.485 4.43398C118.933 5.60628 123.849 8.70395 127.805 12.2288C132.033 15.9957 135.195 20.2973 135.566 23.3206C135.844 25.5924 135.618 27.6475 135.19 29.3435C134.665 31.4223 133.793 33.0059 133.145 33.8128C135.923 37.4531 138.963 40.304 140.171 41.3861C140.562 41.6962 140.771 41.9192 140.773 41.9208C140.788 41.9366 140.802 41.9541 140.814 41.9715C144.382 44.9442 147.634 49.7109 147.646 49.7299L147.643 49.7283ZM131.929 40.266C130.932 40.092 129.881 39.91 128.772 39.7265C125.901 39.2472 122.656 38.7409 119.05 38.241C116.323 37.8628 114.151 38.2932 113.05 39.0367C112.742 39.244 112.54 39.4655 112.462 39.6806C112.401 39.8499 112.423 40.0334 112.54 40.2185C112.917 40.8197 114.045 41.4241 116.144 41.8718C120.99 42.9065 126.808 41.5016 130.977 40.4938C131.304 40.4147 131.621 40.3388 131.927 40.266H131.929ZM130.471 32.6421C128.995 30.4683 127.699 28.0984 126.922 25.6905C125.576 21.5091 123.618 18.4114 120.39 16.1871C117.129 13.939 112.538 12.5468 105.946 11.789C97.4786 10.8176 92.7628 12.3553 90.4918 13.5593C90.4257 13.6146 90.356 13.6716 90.2847 13.7302C92.2894 13.8868 95.4809 14.2491 98.7472 15.0733C98.8238 15.0812 98.8986 15.1018 98.97 15.1303C102.772 16.1127 106.644 17.728 108.833 20.3811C112.895 25.3045 119.488 27.9196 124.161 29.7722C125.21 30.1883 126.164 30.5664 126.975 30.9239C128.647 31.6612 129.728 32.237 130.471 32.6421V32.6421ZM128.398 25.3013C129.213 27.831 130.638 30.3259 132.235 32.5804C132.698 31.8748 133.278 30.6487 133.687 29.0302C134.082 27.4672 134.289 25.5718 134.033 23.4725C133.702 20.7687 130.721 16.7851 126.724 13.2239C122.929 9.84302 118.246 6.87983 114.056 5.77398C109.77 4.64439 106.225 4.86588 103.23 5.68064C100.216 6.50173 97.7205 7.93981 95.5888 9.21178C94.3097 9.97434 93.5162 10.5803 92.9298 11.115C95.855 10.267 100.134 9.71488 106.14 10.4047C113.006 11.1925 117.832 12.6733 121.317 15.0765C124.836 17.5018 126.957 20.832 128.398 25.3029V25.3013ZM96.9983 16.0874C93.0081 15.2331 89.345 15.0496 88.3879 15.0148C87.2603 15.6951 86.331 16.2219 85.5392 16.6712C83.8669 17.6204 82.8333 18.2074 82.0885 18.9968C81.4377 19.6882 80.9278 20.6216 80.6145 21.2861C82.0832 21.3889 85.0781 21.43 88.4193 20.5013C91.7726 19.5695 95.2494 17.323 96.9983 16.0874V16.0874Z" fill="#C8D8C0"/>
<path id="Vector_4" fill-rule="evenodd" clip-rule="evenodd" d="M183.938 139.034C184.049 139.406 183.807 139.79 183.398 139.891C182.989 139.992 182.566 139.773 182.455 139.401C182.448 139.375 180.515 132.868 175.693 127.863C174.462 127.565 167.528 126.162 160.831 130.418C160.633 130.544 160.038 130.926 159.472 131.29C152.827 135.553 152.581 135.711 142.826 131.91C133.594 128.314 128.104 133.702 127.806 134.004C127.77 134.044 127.73 134.079 127.684 134.109L127.681 134.112L127.674 134.117L127.664 134.123L127.636 134.14L127.629 134.144C127.552 134.188 127.469 134.22 127.378 134.235L127.342 134.242H127.335C127.267 134.251 127.197 134.253 127.128 134.245H127.122L127.075 134.237C127.053 134.232 127.028 134.227 127.008 134.223L126.997 134.22L126.981 134.215C126.955 134.207 126.929 134.197 126.905 134.188L126.877 134.175C126.771 134.126 126.682 134.057 126.612 133.974L126.609 133.971L126.604 133.965L126.597 133.955L126.579 133.93L126.576 133.924C126.529 133.854 126.492 133.778 126.475 133.696L126.468 133.663V133.655C126.463 133.618 126.459 133.58 126.459 133.542C126.456 133.158 126.397 122.408 130.968 117.053C134.454 112.971 138.103 112.37 143.471 111.487C145.297 111.186 147.331 110.851 149.675 110.315C157.807 108.453 161.065 110.019 165.624 112.212C166.219 112.498 166.837 112.795 167.475 113.088C172.9 115.584 176.363 125.572 176.803 126.896C181.914 132.187 183.938 139.004 183.944 139.031L183.938 139.034ZM173.831 126.137C172.404 124.968 170.777 123.963 168.932 123.259C162.942 120.971 160.857 121.354 157.69 121.933C155.52 122.33 152.872 122.816 148.34 122.693C142.774 122.541 138.71 123.064 135.806 124.112C133.009 125.12 131.306 126.619 130.366 128.467C129.76 129.66 129.303 130.609 128.956 131.356C131.668 129.755 136.669 127.986 143.428 130.62C152.395 134.115 152.616 133.973 158.588 130.141C158.872 129.959 159.183 129.76 159.954 129.269C165.274 125.888 170.754 125.808 173.832 126.135L173.831 126.137ZM169.529 121.966C171.326 122.653 172.931 123.601 174.353 124.7C172.981 121.362 170.298 115.958 166.776 114.336C166.108 114.029 165.492 113.733 164.902 113.449C160.647 111.403 157.607 109.94 150.044 111.672C147.707 112.207 145.615 112.552 143.739 112.86C138.721 113.686 135.31 114.248 132.181 117.912C129.618 120.913 128.621 125.839 128.234 129.361C128.454 128.912 128.697 128.42 128.972 127.88C130.072 125.713 132.04 123.966 135.242 122.811C138.336 121.696 142.601 121.137 148.386 121.294C152.747 121.413 155.301 120.946 157.393 120.562C160.845 119.93 163.116 119.514 169.532 121.963L169.529 121.966Z" fill="#C8D8C0"/>
<path id="Vector_5" fill-rule="evenodd" clip-rule="evenodd" d="M184.126 152.602C183.887 152.921 183.407 153.002 183.057 152.785C182.706 152.567 182.617 152.132 182.855 151.814C182.867 151.798 186.745 146.797 188.657 131.514C188.241 130.532 186.16 125.349 185.05 117.323C184.428 112.833 184.171 109.528 184.89 106.353C185.612 103.159 187.303 100.153 190.575 96.2945C195.903 90.0074 202.688 88.3225 207.735 87.0711C208.887 86.7847 209.945 86.5221 210.85 86.2374C215.656 84.7202 223.931 84.7692 224.656 84.7771C225.008 84.7597 225.338 84.9654 225.438 85.2866C225.505 85.5049 225.45 85.7279 225.312 85.8956C224.945 86.394 220.175 92.9468 218.374 99.7307C217.111 104.49 214.246 106.054 211.403 107.609C209.84 108.464 208.283 109.315 207.092 110.742C205.437 112.727 204.607 114.711 203.699 116.883C202.777 119.09 201.774 121.484 199.784 124.292C196.357 129.125 191.605 131.324 190.155 131.91C188.179 147.376 184.139 152.587 184.127 152.605L184.126 152.602ZM190.519 128.671C190.465 129.216 190.408 129.749 190.35 130.271C192.179 129.415 195.767 127.371 198.487 123.534C200.393 120.845 201.364 118.526 202.258 116.388C203.21 114.113 204.079 112.036 205.862 109.895C207.228 108.256 208.916 107.334 210.611 106.407C213.18 105.004 215.766 103.589 216.878 99.3985C218.24 94.2663 221.233 89.2765 222.892 86.7658C219.495 87.9207 212.177 90.8522 203.969 96.8925C192.863 105.065 192.271 111.027 190.549 128.379L190.519 128.671ZM189.031 128.116C190.787 110.43 191.42 104.328 203 95.8072C209.852 90.7636 216.129 87.8321 220.106 86.2801C217.316 86.4288 213.822 86.7721 211.347 87.5536C210.387 87.8558 209.308 88.1247 208.135 88.4158C203.302 89.615 196.805 91.2288 191.789 97.1472C188.671 100.827 187.065 103.661 186.393 106.632C185.718 109.62 185.97 112.805 186.572 117.152C187.239 121.962 188.253 125.713 189.033 128.116H189.031Z" fill="#C8D8C0"/>
<path id="Vector_6" fill-rule="evenodd" clip-rule="evenodd" d="M43.3744 94.8867C43.2665 95.0164 42.3721 96.1745 43.7677 97.274C44.77 98.0635 46.263 98.6805 47.8744 98.7801C49.1865 98.8608 50.5735 98.5935 51.8299 97.7866C52.5921 97.2962 54.1096 95.9071 56.0795 94.1052C61.8047 88.8654 71.2625 80.2099 78.5208 78.7956C84.9421 77.5458 93.4185 77.242 98.3362 77.1787C93.5577 75.6599 84.7437 73.5416 75.6738 74.8547C70.0026 75.6758 64.4932 78.0963 59.5406 81.1608C52.78 85.3437 47.0688 90.7164 43.3883 94.874L43.3744 94.8883V94.8867ZM42.7618 98.3308C40.3847 96.4577 41.8726 94.3899 42.1511 94.045C42.1632 94.0292 42.1771 94.0118 42.1893 93.9976C45.9429 89.7577 51.769 84.2758 58.6723 80.0059C63.7902 76.8386 69.5084 74.3326 75.432 73.4751C89.169 71.4865 102.311 77.0901 102.652 77.2373C102.922 77.348 103.106 77.5964 103.103 77.8812C103.097 78.2672 102.749 78.5757 102.326 78.5709C102.286 78.5709 88.278 78.3257 78.8392 80.1641C72.0281 81.4914 62.7722 89.9618 57.1688 95.0908C55.1415 96.945 53.5822 98.3736 52.7139 98.932C51.1408 99.943 49.4076 100.278 47.7718 100.177C45.8141 100.057 43.9921 99.3007 42.7618 98.3324V98.3308Z" fill="#C8D8C0"/>
<path id="Vector_7" fill-rule="evenodd" clip-rule="evenodd" d="M92.8443 97.3847C93.2672 97.4321 93.5665 97.7802 93.516 98.1646C93.4638 98.5491 93.081 98.8212 92.6581 98.7753C92.625 98.7722 80.8509 97.4052 76.229 102.833C74.5706 104.779 73.0672 107.311 71.8108 109.801C69.9888 113.406 68.6923 116.857 68.1911 118.339C70.1802 118.135 75.1727 117.203 82.9792 112.99C93.2915 107.426 97.1948 98.5206 97.207 98.4953C97.3218 98.2406 97.5985 98.0618 97.9204 98.0634L107.855 98.1251C107.921 98.1203 107.989 98.1251 108.059 98.1362C108.476 98.2105 108.748 98.5775 108.666 98.9572C108.661 98.981 106.976 107.461 94.6715 114.855C87.2062 119.342 78.6375 120.313 73.0585 120.313C71.2922 120.313 69.8165 120.215 68.7706 120.101C68.1181 120.03 67.5821 119.92 67.1975 119.802C66.9487 119.802 66.7033 119.693 66.5537 119.491C66.4649 119.369 66.4214 119.238 66.4214 119.094C66.4214 119.087 66.4214 119.078 66.4249 119.065C66.4284 118.973 66.4527 118.885 66.4928 118.806C66.8199 117.676 68.266 113.474 70.4134 109.222C71.715 106.646 73.2777 104.02 75.0127 101.981C80.1793 95.9134 92.8078 97.3831 92.8443 97.3863V97.3847ZM72.4441 118.907C72.6442 118.91 72.8479 118.912 73.0567 118.912C78.4338 118.912 86.6788 117.981 93.8223 113.689C103.322 107.981 106.171 101.721 106.917 99.5141L98.4198 99.4619C97.4679 101.37 93.154 109.127 83.7623 114.194C79.0011 116.763 75.2006 118.154 72.4459 118.907H72.4441Z" fill="#C8D8C0"/>
<path id="Vector_8" fill-rule="evenodd" clip-rule="evenodd" d="M20.6027 42.9963C20.9542 42.7796 21.4327 42.8603 21.6711 43.1798C21.9096 43.4994 21.8208 43.9345 21.4693 44.1512C21.4136 44.186 1.81562 55.9391 1.54589 94.3752C1.41016 113.692 3.0773 124.699 5.47005 131.329C7.80885 137.812 10.8454 140.037 13.5375 141.827C14.8809 142.721 16.1338 143.519 17.3276 144.278C21.4483 146.9 24.8991 149.095 26.079 151.293C26.4653 152.013 26.688 153.456 26.996 155.455C27.9566 161.689 29.7908 173.586 39.4105 183.076C44.29 187.889 49.4914 192.501 54.6719 197.092C63.0822 204.547 71.4368 211.951 78.2705 220.082C79.3129 221.323 80.3866 222.432 81.4829 223.414C86.0648 227.518 91.0817 229.467 95.9316 229.701C100.774 229.935 105.471 228.464 109.413 225.726C110.312 225.101 111.172 224.411 111.981 223.664C115.195 220.698 117.458 217.309 118.455 214.053C119.038 212.15 119.187 210.297 118.838 208.611C118.495 206.956 117.666 205.456 116.29 204.224C114.96 203.033 113.112 202.082 110.692 201.468C104.399 199.873 98.3243 199.193 92.9384 199.565C87.8815 199.913 83.4423 201.193 80.0194 203.52C77.3743 205.317 74.4943 205.963 71.9745 205.758C70.4066 205.632 68.9744 205.175 67.8172 204.46C66.6304 203.727 65.7308 202.726 65.2627 201.533C64.725 200.164 64.7528 198.554 65.5619 196.817C68.5115 190.488 72.4426 188.56 82.6679 183.548C83.3083 183.233 83.9748 182.907 84.6674 182.567C96.2727 176.857 101.159 175.418 101.173 175.413C101.575 175.293 102.01 175.49 102.142 175.856C102.205 176.028 102.189 176.207 102.113 176.362H102.114C102.109 176.373 100.428 179.735 96.1177 187.573C93.6832 191.999 88.9656 196.442 85.266 199.508C87.5891 198.796 90.1263 198.356 92.8253 198.169C98.3852 197.786 104.638 198.484 111.102 200.122C113.789 200.802 115.858 201.876 117.369 203.229C118.98 204.672 119.95 206.424 120.35 208.355C120.743 210.255 120.581 212.321 119.937 214.426C118.871 217.909 116.473 221.513 113.078 224.645C112.213 225.444 111.299 226.176 110.346 226.839C106.119 229.776 101.072 231.353 95.8515 231.1C90.6397 230.848 85.273 228.774 80.4039 224.412C79.2519 223.381 78.1296 222.223 77.0454 220.934C70.2761 212.879 61.965 205.513 53.5982 198.096C48.3951 193.485 43.1693 188.853 38.2759 184.026C28.3325 174.217 26.4548 162.034 25.4699 155.65C25.1828 153.783 24.9739 152.437 24.6903 151.908C23.681 150.029 20.3817 147.929 16.4436 145.423C15.1907 144.626 13.8768 143.789 12.6239 142.957C9.74217 141.04 6.48976 138.66 4.00305 131.764C1.56853 125.015 -0.128137 113.866 0.00759736 94.3721C0.282546 55.1892 20.54 43.0343 20.5992 42.9979L20.6027 42.9963ZM79.1023 202.393L79.2659 202.283C80.6824 201.294 90.8381 194.054 94.7483 186.945C97.3777 182.162 99.0343 179.031 99.9184 177.335C97.63 178.183 92.9872 180.061 85.3983 183.793C84.7057 184.133 84.0392 184.461 83.3988 184.774C73.5163 189.618 69.7157 191.482 66.9802 197.353C66.3346 198.739 66.3033 200.001 66.7174 201.055C67.0759 201.966 67.7685 202.732 68.6821 203.298C69.627 203.882 70.8086 204.257 72.1102 204.361C74.2802 204.537 76.7809 203.969 79.1023 202.39V202.393Z" fill="#C8D8C0"/>
<path id="Vector_9" fill-rule="evenodd" clip-rule="evenodd" d="M71.0364 185.084C71.0921 185.345 70.9808 185.624 70.7267 185.787C70.7215 185.79 68.7917 187.032 68.3914 189.909C68.2313 191.068 68.1634 192.042 68.106 192.873C68.0051 194.32 67.9337 195.355 67.4412 196.42C67.3089 196.704 67.1263 196.965 66.9 197.193C66.4023 197.698 65.6976 198.037 64.8832 198.155C64.1088 198.268 63.2317 198.181 62.346 197.842C61.7369 197.609 61.1192 197.257 60.5206 196.769C59.0658 195.581 56.7391 192.441 55.5663 189.079C54.731 186.682 54.4647 184.143 55.4706 182.037C56.8662 179.115 58.6272 178.778 60.3639 178.447C61.0217 178.323 61.6743 178.198 62.2781 177.854L61.8309 177.169C60.3883 174.959 58.716 172.398 56.1823 169.552C55.2878 170.678 54.3237 171.502 51.71 171.361C48.7465 171.202 45.3723 170.942 42.6768 169.134C39.969 167.319 38.0374 164.008 38.0723 157.806C38.0984 153.136 38.2914 148.32 38.5177 144.188C38.0878 145.083 37.5832 145.996 36.988 146.915C34.6545 150.516 32.0024 152.549 29.4426 153.66C26.8637 154.778 24.3892 154.959 22.4193 154.861C18.3542 154.66 17.5381 153.767 17.5363 153.766C17.2892 153.516 17.2753 153.15 17.4842 152.888L20.8322 147.873C20.4964 146.457 19.3461 140.174 24.2151 136.096C29.5157 131.658 39.6505 132.297 40.1047 132.327H40.1256C40.5172 132.356 40.8182 132.647 40.8339 132.995C40.8391 133.039 40.8443 133.104 40.8478 133.19C40.893 133.848 40.9644 135.879 40.4058 138.594C40.0682 143.449 39.6488 150.818 39.6088 157.811C39.5757 163.475 41.2463 166.437 43.5869 168.004C45.9379 169.58 49.0563 169.816 51.8023 169.965C53.7965 170.072 54.4578 169.363 55.1626 168.439C53.2066 166.367 52.025 164.146 51.5899 161.972C51.2401 160.225 51.3759 158.514 51.9832 156.936C52.5906 155.356 53.6659 153.916 55.1938 152.722C57.0924 151.236 59.6957 150.122 62.9742 149.581C67.3612 148.857 70.7894 148.945 73.283 149.584C74.797 149.972 75.9821 150.564 76.8469 151.304C77.7449 152.075 78.293 153 78.4983 154.022C78.6602 154.832 78.6028 155.694 78.3296 156.576C77.6091 158.901 76.565 160.866 74.3707 162.404C72.2268 163.905 69.0109 164.96 63.9452 165.487C59.6939 165.93 58.1104 167.177 57.108 168.363C59.8575 171.399 61.6325 174.121 63.1569 176.456L63.3988 176.826L63.4145 176.804C64.6535 175.046 65.755 173.75 68.1442 172.977C70.4117 172.241 73.8208 172.028 79.6817 172.406C91.233 173.151 101.558 175.381 101.589 175.388C102.003 175.475 102.261 175.851 102.163 176.228C102.102 176.465 101.916 176.644 101.683 176.725C101.142 176.938 94.5289 179.514 86.7085 180.593C83.5919 181.023 80.8128 182.138 78.3278 183.135C75.6305 184.217 73.2517 185.173 71.033 185.081L71.0364 185.084ZM66.8688 189.734C67.2533 186.959 68.8995 185.383 69.5608 184.853C68.99 184.692 68.4279 184.443 67.8711 184.091C65.8594 182.814 64.4916 181.126 63.0891 179.069C62.3129 179.504 61.4985 179.661 60.6789 179.816C59.3285 180.074 57.9572 180.335 56.8801 182.589C56.0448 184.339 56.2971 186.54 57.035 188.657C58.1243 191.779 60.2386 194.657 61.549 195.728C62.0101 196.105 62.4817 196.374 62.9411 196.549C63.5554 196.784 64.1418 196.848 64.6413 196.776C65.1007 196.709 65.4887 196.526 65.755 196.257C65.8629 196.148 65.9534 196.019 66.0178 195.877C66.4111 195.024 66.4772 194.089 66.5677 192.784C66.6251 191.95 66.693 190.974 66.8653 189.732L66.8688 189.734ZM64.7092 177.562C64.5613 177.77 64.4116 177.959 64.2585 178.126C65.6211 180.142 66.9122 181.779 68.7498 182.945C71.1687 184.481 74.1235 183.297 77.7101 181.857C80.2838 180.824 83.162 179.669 86.4805 179.21C91.5932 178.504 96.1664 177.149 98.7871 176.267C95.0823 175.573 87.6308 174.323 79.5738 173.803C73.946 173.439 70.7284 173.627 68.6628 174.298C66.719 174.929 65.7794 176.043 64.7092 177.562V177.562ZM53.1021 161.728C53.4693 163.567 54.4595 165.464 56.0935 167.269C57.2751 165.933 59.1562 164.578 63.7712 164.098C68.5358 163.601 71.5081 162.648 73.431 161.3C75.3034 159.988 76.21 158.26 76.8486 156.199C77.0592 155.519 77.1062 154.867 76.9879 154.269C76.8435 153.544 76.4466 152.881 75.7941 152.323C75.1067 151.734 74.134 151.255 72.8689 150.932C70.5806 150.347 67.3855 150.273 63.2457 150.958C60.2595 151.451 57.9033 152.453 56.1997 153.786C54.8789 154.821 53.9514 156.053 53.4345 157.4C52.916 158.749 52.8011 160.222 53.1021 161.728V161.728ZM39.1302 135.003C39.172 134.466 39.2086 134.023 39.2364 133.691C36.8263 133.62 29.3504 133.699 25.2575 137.126C21.2777 140.458 21.9129 145.555 22.2592 147.249C24.8034 147.044 34.075 145.968 36.6539 141.128C38.1818 138.262 38.8466 136.276 39.1302 135.003ZM35.6656 146.208C36.527 144.879 37.1899 143.565 37.698 142.31C34.2716 147.515 24.2412 148.509 22.1008 148.664L19.1756 153.046C19.668 153.192 20.6356 153.372 22.4993 153.465C24.2674 153.552 26.4843 153.392 28.7831 152.396C31.101 151.39 33.5147 149.529 35.6656 146.21V146.208Z" fill="#C8D8C0"/>
<path id="Vector_10" fill-rule="evenodd" clip-rule="evenodd" d="M40.837 133.169C40.9415 133.544 40.6927 133.925 40.2802 134.02C39.8678 134.115 39.4484 133.888 39.344 133.513C39.337 133.491 37.4385 126.603 32.4442 121.003C31.4731 120.659 26.2422 119.047 18.709 121.15C15.5958 122.018 12.8358 123.235 10.5614 124.236C8.57236 125.113 6.94005 125.833 5.66798 126.059C3.96086 126.364 2.87326 125.923 2.49912 124.2C1.66731 120.354 3.94874 119.171 8.776 116.665C9.3172 116.383 9.89663 116.082 10.5509 115.736C13.7807 114.023 17.6666 113.031 21.6499 113.472C25.0188 113.844 28.447 115.236 31.5985 118.071C32.2684 118.674 32.8949 119.305 33.4813 119.952C33.4987 119.97 33.5144 119.987 33.5283 120.004C38.8237 125.882 40.8266 133.143 40.8336 133.167L40.837 133.169ZM30.5352 119.079L30.516 119.061C27.636 116.47 24.5194 115.2 21.4706 114.863C17.8423 114.461 14.2889 115.374 11.3219 116.946C10.718 117.266 10.1072 117.584 9.5347 117.881C5.36349 120.047 3.39182 121.069 4.01132 123.933C4.16446 124.64 4.63262 124.818 5.3722 124.686C6.45459 124.493 8.00331 123.809 9.8914 122.977C12.2111 121.955 15.0249 120.715 18.2547 119.814C23.6162 118.318 27.9371 118.609 30.5334 119.079H30.5352Z" fill="#C8D8C0"/>
<path id="Vector_11" fill-rule="evenodd" clip-rule="evenodd" d="M334.933 315.176C335.105 315.529 334.933 315.942 334.545 316.098C334.159 316.255 333.703 316.098 333.53 315.746C333.501 315.686 323.471 295.06 308.033 282.927C300.171 276.746 295.476 272.519 293.03 267.77C290.599 263.049 290.423 257.912 291.618 249.973C290.277 248.467 282.855 240.063 279.117 234.172C276.928 230.723 276.628 226.287 278.236 221.465C279.754 216.913 282.98 212.005 287.926 207.262C297.554 198.028 314.295 192.388 315.721 191.918C315.789 191.894 315.828 191.883 315.828 191.883C316.228 191.757 316.666 191.948 316.806 192.314C316.83 192.378 316.844 192.445 316.848 192.51C316.848 192.538 317.402 202.212 313.228 209.548C312.144 211.453 311.178 212.831 310.353 214.005C308.169 217.119 307.038 218.731 307.329 225.89C307.722 235.556 294.796 248.48 293.15 250.084C291.984 257.792 292.126 262.731 294.417 267.178C296.745 271.698 301.33 275.814 309.034 281.871C324.73 294.209 334.898 315.116 334.928 315.176H334.933ZM291.872 248.029C292.44 242.354 291.366 237.541 290.388 233.156C288.778 225.945 287.418 219.851 293.595 212.869C299.538 206.152 303.972 202.309 306.949 199.729C308.977 197.971 310.31 196.816 310.922 195.794C311.093 195.511 311.275 195.245 311.467 194.997C305.561 197.356 295.593 201.945 289.043 208.227C284.266 212.809 281.16 217.522 279.708 221.871C278.226 226.317 278.478 230.37 280.45 233.477C283.587 238.421 289.41 245.218 291.874 248.029H291.872ZM291.893 232.882C292.868 237.25 293.936 242.034 293.447 247.697C297.159 243.825 306.112 233.657 305.797 225.939C305.488 218.349 306.707 216.612 309.062 213.255C309.861 212.116 310.799 210.779 311.864 208.908C315.043 203.32 315.346 196.267 315.339 193.631C314.453 194.092 313.165 194.968 312.271 196.46C311.54 197.68 310.139 198.893 308.009 200.74C305.061 203.295 300.674 207.098 294.794 213.744C289.067 220.216 290.364 226.018 291.895 232.882H291.893Z" fill="#C8D8C0"/>
<path id="Vector_12" fill-rule="evenodd" clip-rule="evenodd" d="M308.183 281.193C308.501 281.447 308.534 281.889 308.256 282.178C307.978 282.468 307.492 282.498 307.172 282.245C307.121 282.203 289.359 268.107 273.061 256.625C266.265 251.837 260.227 248.941 254.904 247.59C253.955 247.908 249.775 249.591 247.609 255.19C246.232 258.746 242.164 261.311 237.104 263.25C232.17 265.141 226.281 266.449 221.082 267.506C210.889 269.579 202.159 269.036 201.712 269.008C201.619 269.004 201.525 268.985 201.437 268.949C201.047 268.794 200.871 268.379 201.042 268.027C201.809 266.441 202.733 264.919 204.701 262.537C206.635 260.195 209.588 257.014 214.429 252.084C216.581 249.895 218.172 248.112 219.458 246.669C224.064 241.505 224.943 240.521 233.912 239.925C244.635 239.211 254.058 245.422 255.224 246.223C260.76 247.613 267.007 250.592 273.999 255.52C290.329 267.027 308.131 281.155 308.183 281.196V281.193ZM252.589 247.09C246.434 246.004 241.304 247.09 237.124 249.724C231.352 253.364 230.63 253.674 226.687 255.369C224.839 256.163 222.275 257.265 218.137 259.166C209.393 263.182 205.227 266.182 203.469 267.674C206.476 267.743 213.202 267.675 220.753 266.141C225.884 265.097 231.69 263.809 236.51 261.961C241.203 260.162 244.953 257.845 246.159 254.726C247.832 250.406 250.659 248.169 252.589 247.087V247.09ZM236.251 248.575C240.365 245.982 245.312 244.775 251.149 245.463C247.451 243.511 241.017 240.853 234.022 241.318C225.717 241.871 224.907 242.779 220.652 247.547C219.362 248.991 217.77 250.777 215.574 253.013C210.764 257.909 207.837 261.062 205.93 263.372C205.463 263.939 205.058 264.453 204.701 264.929C207.172 263.203 211.175 260.798 217.443 257.919C221.612 256.003 224.179 254.9 226.029 254.105C229.882 252.448 230.586 252.144 236.251 248.574V248.575Z" fill="#C8D8C0"/>
<path id="Vector_13" fill-rule="evenodd" clip-rule="evenodd" d="M275.043 256.254C275.372 256.499 275.42 256.94 275.151 257.239C274.881 257.538 274.395 257.583 274.066 257.338C274.035 257.314 263.053 249.286 251.423 227.641C247.396 220.147 244.254 213.953 241.527 208.58L240.385 206.332C240.373 206.31 240.361 206.288 240.35 206.264C235.915 197.539 232.469 190.959 227.538 183.827C223.368 177.8 220.152 172.696 218.09 167.871C216.009 162.998 215.107 158.419 215.595 153.483C215.671 152.699 215.837 151.965 216.077 151.283C217.281 147.861 220.366 145.668 224.045 144.412C227.632 143.186 231.798 142.854 235.285 143.138C236.832 143.265 238.252 143.512 239.435 143.857L239.472 143.868L239.517 143.88H239.52C245.895 145.734 252.013 147.516 252.516 155.853C254.77 155.124 257.053 154.819 259.235 154.947C263.469 155.195 267.489 157.296 270.586 160.18C273.952 163.316 276.244 167.401 276.541 171.044C276.833 174.643 274.831 178.991 271.328 182.876C270.471 183.826 269.525 184.748 268.5 185.626C269.004 186.072 269.479 186.569 269.928 187.116L269.946 187.138C271.16 188.629 272.178 190.496 273.094 192.726C274.629 196.468 275.273 198.642 275.165 200.553C275.053 202.505 274.192 204.06 272.714 206.585C271.9 207.976 271.498 209.273 271.155 210.373C270.203 213.432 269.648 215.214 263.966 214.426C258.234 213.632 247.08 209.235 242.637 207.421L242.926 207.99C245.629 213.317 248.745 219.457 252.81 227.022C264.29 248.388 275.013 256.225 275.044 256.249L275.043 256.254ZM228.838 183.084C231.683 187.197 234.03 191.116 236.35 195.349C235.334 189.918 234.45 181.481 236.548 173.772C238.184 167.765 241.334 163.147 245.113 159.987C246.954 158.448 248.947 157.255 250.988 156.413C250.678 148.596 244.983 146.938 239.047 145.211L238.998 145.197L238.962 145.187C237.881 144.872 236.578 144.646 235.149 144.531C231.864 144.263 227.947 144.573 224.583 145.722C221.311 146.84 218.577 148.756 217.537 151.711C217.33 152.302 217.187 152.933 217.121 153.605C216.656 158.31 217.523 162.693 219.521 167.368C221.538 172.09 224.713 177.122 228.836 183.084H228.838ZM239.418 201.132C240.128 202.503 240.853 203.923 241.605 205.402C243.643 205.821 253.778 207.78 258.601 206.337C261.937 205.338 262.365 204.78 263.43 203.393C264.1 202.519 264.993 201.353 266.786 199.657C268.651 197.89 269.514 195.987 269.794 194.199C270.2 191.617 269.403 189.271 268.658 187.915C268.246 187.415 267.811 186.966 267.348 186.567C264.663 188.665 261.518 190.45 258.097 191.646C249.062 194.805 241.389 199.795 239.418 201.13V201.132ZM252.544 157.336C252.537 157.801 252.513 158.283 252.474 158.786C251.738 168.147 248.724 174.699 245.366 182.003C244.915 182.982 244.461 183.971 244.125 184.712C241.898 189.629 240.591 194.421 239.895 197.52C243.324 192.802 250.386 184.163 256.741 183.137C261.17 182.424 264.482 182.925 267.102 184.58C267.175 184.626 267.247 184.674 267.318 184.721C268.343 183.851 269.288 182.935 270.139 181.992C273.398 178.377 275.267 174.389 275.003 171.145C274.733 167.825 272.607 164.067 269.481 161.156C266.631 158.502 262.962 156.568 259.136 156.344C257.002 156.219 254.756 156.553 252.544 157.334V157.336ZM250.938 158.687C250.957 158.442 250.971 158.201 250.981 157.965C249.311 158.725 247.678 159.744 246.154 161.017C242.581 164.004 239.597 168.386 238.04 174.106C235.671 182.807 237.223 192.495 238.341 197.436C239.042 194.277 240.384 189.293 242.7 184.178C243.197 183.081 243.572 182.266 243.94 181.464C247.25 174.27 250.217 167.817 250.936 158.685L250.938 158.687ZM257.549 190.344C260.709 189.238 263.624 187.602 266.133 185.675C263.873 184.284 260.954 183.878 257.004 184.515C251.178 185.455 244.464 193.739 241.167 198.294C244.671 196.132 250.727 192.729 257.551 190.344H257.549ZM271.649 193.217C271.58 193.048 271.51 192.881 271.439 192.717C271.442 193.263 271.406 193.824 271.315 194.397C270.995 196.443 270.014 198.618 267.892 200.627C266.177 202.252 265.326 203.361 264.689 204.193C263.411 205.857 262.9 206.525 259.084 207.667C256.064 208.571 251.239 208.264 247.316 207.762C252.537 209.789 259.95 212.458 264.193 213.045C268.536 213.646 268.954 212.304 269.671 209.998C270.036 208.825 270.464 207.444 271.35 205.93C272.728 203.573 273.532 202.132 273.624 200.483C273.72 198.795 273.106 196.765 271.649 193.215V193.217Z" fill="#C8D8C0"/>
<path id="Vector_14" fill-rule="evenodd" clip-rule="evenodd" d="M239.22 200.813C239.265 201.087 239.129 201.35 238.893 201.495C239.676 202.261 240.17 202.78 240.288 202.907C240.513 203.12 240.57 203.449 240.407 203.723C240.37 203.785 240.323 203.84 240.271 203.887C240.166 203.992 239.731 204.422 239.039 205.094C237.849 206.43 236.037 208.929 234.842 212.755L234.831 212.788C233.825 216 232.705 218.594 231.074 220.589C229.397 222.641 227.209 224.041 224.105 224.796C219.584 225.895 215.352 226.061 213.573 226.077C211.226 226.213 208.591 225.183 203.456 223.173L202.937 222.97C193.331 219.213 195.869 211.114 198.3 203.351C198.881 201.495 199.457 199.659 199.838 197.961C200.022 197.141 200.301 196.384 200.661 195.686C200.762 195.491 200.868 195.303 200.981 195.118C198.893 194.419 196.833 193.591 194.85 192.596C192.569 191.452 190.947 190.059 189.865 188.521V188.518C188.412 186.453 187.937 184.148 188.144 181.841C188.347 179.57 189.214 177.298 190.453 175.255C192.118 172.51 194.475 170.166 196.812 168.797L196.852 168.774L196.981 168.699L196.986 168.696C200.555 166.693 206.966 165.88 213.345 166.834C219.721 167.786 226.109 170.498 229.682 175.537C229.692 175.55 229.703 175.564 229.712 175.576C229.734 175.61 229.788 175.687 229.861 175.795C236.744 185.933 239.213 200.768 239.22 200.81V200.813ZM237.549 200.219C236.935 197.034 234.335 185.047 228.554 176.53L228.417 176.334L228.394 176.301C225.091 171.636 219.098 169.112 213.096 168.215C207.07 167.313 201.079 168.044 197.797 169.883L197.668 169.957L197.645 169.97C195.514 171.218 193.347 173.382 191.802 175.931C190.66 177.81 189.865 179.891 189.679 181.952C189.496 183.977 189.905 185.986 191.156 187.768C192.106 189.116 193.547 190.347 195.588 191.372C197.603 192.383 199.707 193.216 201.849 193.917C203.501 191.971 205.915 190.674 208.655 189.935C212.078 189.013 216.023 188.969 219.599 189.633C221.298 189.948 222.92 190.424 224.366 191.043C229.518 193.245 234.556 197.444 237.549 200.217V200.219ZM203.402 194.4C209.127 196.093 215.021 196.903 220.099 197.6C223.744 198.1 226.978 198.545 229.492 199.225C232.663 200.083 235.03 200.84 236.712 201.434C233.845 198.747 228.822 194.492 223.715 192.31C222.378 191.739 220.873 191.297 219.291 191.003C215.947 190.381 212.27 190.421 209.089 191.277C206.832 191.884 204.832 192.906 203.402 194.4V194.4ZM219.869 198.985C214.588 198.258 208.438 197.414 202.452 195.589C202.307 195.811 202.173 196.04 202.05 196.278C201.74 196.877 201.5 197.532 201.34 198.241C200.936 200.037 200.36 201.875 199.779 203.734C197.529 210.918 195.181 218.412 203.543 221.684L204.061 221.886C208.433 223.597 210.902 224.563 212.79 224.679C212.896 224.68 213.122 224.685 213.453 224.682C213.535 224.677 213.617 224.671 213.697 224.663C215.625 224.468 217.389 223.136 220.864 220.515V220.512L221.714 219.871C227.399 215.593 230.046 212.462 232.052 210.089C232.967 209.007 233.752 208.078 234.638 207.254C236.028 205.958 237.144 204.892 237.92 204.139C238.108 203.93 238.282 203.747 238.437 203.59C237.079 203.03 234.146 201.937 229.059 200.562C226.663 199.915 223.47 199.475 219.871 198.981L219.869 198.985ZM221.844 221.591C220.269 222.779 219.025 223.718 217.93 224.426C219.643 224.247 221.641 223.946 223.706 223.445C226.449 222.779 228.373 221.551 229.839 219.757C231.34 217.919 232.393 215.465 233.352 212.4L233.361 212.372C233.674 211.372 234.029 210.456 234.405 209.621C234.039 210.034 233.667 210.475 233.269 210.945C231.215 213.375 228.504 216.58 222.697 220.951L221.848 221.592L221.844 221.591Z" fill="#C8D8C0"/>
<path id="Vector_15" fill-rule="evenodd" clip-rule="evenodd" d="M233.947 211.691C233.683 211.389 233.738 210.949 234.071 210.709C234.403 210.468 234.887 210.519 235.151 210.821C235.16 210.832 238.351 214.566 243.454 213.549C248.291 212.584 247.51 209.022 247.508 209.013C247.432 208.633 247.709 208.269 248.126 208.2C248.544 208.13 248.944 208.382 249.021 208.761C249.024 208.776 250.089 213.659 243.779 214.919C237.734 216.124 233.959 211.706 233.947 211.693V211.691Z" fill="#C8D8C0"/>
</g>
</svg>
